<svg width="17" height="17" viewBox="0 0 17 17" fill="none" xmlns="http://www.w3.org/2000/svg">
<path d="M5.45331 8.74606H12.192V7.71102H5.45331V8.74606ZM8.82263 15.1806C7.90168 15.1806 7.03127 14.9994 6.21141 14.6372C5.39154 14.2749 4.67556 13.7804 4.06346 13.1536C3.45137 12.5268 2.96843 11.7937 2.61465 10.9541C2.26087 10.1146 2.08398 9.22333 2.08398 8.28029C2.08398 7.32576 2.26087 6.42872 2.61465 5.58919C2.96843 4.74966 3.45137 4.01938 4.06346 3.39836C4.67556 2.77734 5.39154 2.28569 6.21141 1.92343C7.03127 1.56117 7.90168 1.38004 8.82263 1.38004C9.75481 1.38004 10.6308 1.56117 11.4507 1.92343C12.2706 2.28569 12.9837 2.77734 13.5902 3.39836C14.1967 4.01938 14.6768 4.74966 15.0306 5.58919C15.3844 6.42872 15.5613 7.32576 15.5613 8.28029C15.5613 9.22333 15.3844 10.1146 15.0306 10.9541C14.6768 11.7937 14.1967 12.5268 13.5902 13.1536C12.9837 13.7804 12.2706 14.2749 11.4507 14.6372C10.6308 14.9994 9.75481 15.1806 8.82263 15.1806ZM8.82263 14.1455C10.4174 14.1455 11.7708 13.5734 12.8827 12.4291C13.9945 11.2848 14.5505 9.90185 14.5505 8.28029C14.5505 6.64723 13.9945 5.26143 12.8827 4.12289C11.7708 2.98435 10.4174 2.41507 8.82263 2.41507C7.23905 2.41507 5.88851 2.98435 4.77102 4.12289C3.65353 5.26143 3.09478 6.64723 3.09478 8.28029C3.09478 9.90185 3.65353 11.2848 4.77102 12.4291C5.88851 13.5734 7.23905 14.1455 8.82263 14.1455Z" fill="white"/>
</svg>
