<svg width="139" height="141" viewBox="0 0 139 141" fill="none" xmlns="http://www.w3.org/2000/svg">
<path d="M25.1327 1.53711C23.1517 2.27402 19.9648 5.22168 18.5866 7.67806C16.9501 10.7076 17.0363 15.5385 18.9312 18.9774C21.1706 23.2351 22.8071 22.9895 25.7356 17.9949C27.1999 15.6204 30.5591 11.6083 33.2292 9.15189C35.8993 6.69551 38.0526 4.23913 38.0526 3.66597C38.0526 1.53711 29.2671 0.145157 25.1327 1.53711Z" fill="white"/>
<path d="M102.91 1.78276C99.9819 2.92907 100.499 4.32102 105.064 8.49687C107.389 10.5439 110.749 14.4741 112.557 17.258C116.175 23.0714 117.811 23.3989 120.051 18.9774C123.065 13.3278 121.601 7.26868 116.433 3.09283C114.194 1.37336 112.902 0.963966 109.284 1.04585C106.786 1.04585 103.944 1.37336 102.91 1.78276Z" fill="white"/>
<path d="M45.3739 11.9357C41.9286 13.3277 37.2774 17.9129 35.7271 21.3519C33.4015 26.5922 34.4351 31.2593 38.0526 31.2593C39.5169 31.2593 40.6366 29.6217 43.5651 22.7438C44.3403 21.0244 46.4936 17.9129 48.4747 15.9478C53.1258 11.1988 51.6616 9.3156 45.3739 11.9357Z" fill="white"/>
<path d="M82.4109 12.4271C82.1525 12.8365 83.0138 13.7371 84.3058 14.3922C87.4927 15.9479 90.5074 19.1412 94.3833 24.8727C97.7425 30.0311 99.5513 30.768 101.016 27.6566C102.394 24.7908 101.36 21.9251 97.6564 17.9949C93.0052 13.0821 84.1335 9.80692 82.4109 12.4271Z" fill="white"/>
<path d="M61.2223 13.3277C60.0164 13.7371 58.5522 15.0472 57.9492 16.2754C57.0879 17.9949 57.174 18.6499 58.3799 19.8781C59.1551 20.7788 60.3609 21.4338 60.9639 21.4338C62.9449 21.4338 67.3377 25.6096 67.3377 27.5748C67.3377 30.4405 64.2369 33.5519 60.7916 34.207C59.069 34.5345 57.5186 35.2714 57.2602 35.9264C56.6572 37.3184 60.7055 43.1318 64.6676 46.6526C69.4049 50.7466 77.932 54.5131 80.8605 53.7762C84.5642 52.9574 85.4255 51.811 85.4255 47.8808C85.4255 42.1493 82.7554 38.1372 77.1568 35.5989C67.0793 31.0956 66.218 24.9546 74.9174 20.4512C78.2765 18.7318 78.5349 16.2754 75.5203 14.3922C73.0224 12.8365 64.323 12.0995 61.2223 13.3277Z" fill="white"/>
<path d="M15.6581 31.0137C10.404 36.6634 4.71929 46.2432 2.22145 53.7761C-1.91291 65.8943 -0.276395 77.1118 7.13101 87.7561C14.4523 98.0729 25.9079 102.986 35.2102 99.7924C43.6512 96.8447 49.2498 89.9668 49.2498 82.5977C49.2498 77.3574 45.7184 73.8366 35.2964 68.5144C25.1327 63.356 18.156 57.0513 16.6056 51.4835C15.1413 46.5708 15.7443 38.1372 17.9837 31.8325C18.9312 29.2942 19.6202 27.1653 19.448 27.1653C19.3618 27.1653 17.6392 28.8848 15.6581 31.0137Z" fill="white"/>
<path d="M120.998 31.8324C123.238 38.0553 123.841 46.5707 122.463 51.3197C120.74 57.1332 115.486 62.0459 104.547 67.9412C92.7468 74.246 89.7322 77.2755 89.7322 82.5977C89.7322 92.0138 99.5513 100.857 109.973 100.857C124.444 100.857 139 83.4164 139 66.1399C139 54.8405 130.99 37.564 121.774 29.3761L119.276 27.0834L120.998 31.8324Z" fill="white"/>
<path d="M2.73828 97.1722C2.73828 97.4178 4.20254 100.529 6.01132 104.05C11.4377 114.449 19.8787 123.783 29.6978 130.251C37.7942 135.492 52.6952 140.978 58.9829 140.978C61.7391 140.978 62.1698 139.749 62.1698 132.544C62.1698 118.297 58.4661 115.349 35.8993 111.501C18.7589 108.553 10.8347 105.442 5.40839 99.5467C3.94414 97.991 2.73828 96.9266 2.73828 97.1722Z" fill="white"/>
<path d="M132.712 100.529C127.2 106.015 120.051 108.472 98.7761 112.32C87.665 114.367 82.7554 116.332 79.6546 120.262C77.6736 122.719 77.3291 124.111 76.9845 129.924C76.4677 138.931 77.0707 140.978 79.913 140.978C83.7029 140.978 92.4023 138.521 99.0345 135.574C114.538 128.86 127.458 116.414 134.177 102.003C135.296 99.5467 136.071 97.5816 135.985 97.5816C135.813 97.5816 134.349 98.8917 132.712 100.529Z" fill="white"/>
</svg>
