<svg width="360" height="640" viewBox="0 0 360 640" fill="none" xmlns="http://www.w3.org/2000/svg">
<g clip-path="url(#clip0_189_18)">
<rect width="360" height="640" fill="#2A2550"/>
<rect x="48" y="270" width="265" height="288" rx="15" fill="#251D3A" fill-opacity="0.63"/>
<rect x="122" y="485" width="110" height="35" rx="15" fill="#E04D01"/>
<path d="M159.533 501H158.476C158.413 500.696 158.304 500.429 158.148 500.199C157.994 499.969 157.807 499.776 157.585 499.619C157.366 499.46 157.124 499.341 156.857 499.261C156.589 499.182 156.311 499.142 156.021 499.142C155.493 499.142 155.014 499.276 154.585 499.543C154.159 499.81 153.82 500.203 153.567 500.723C153.317 501.243 153.192 501.881 153.192 502.636C153.192 503.392 153.317 504.03 153.567 504.55C153.82 505.07 154.159 505.463 154.585 505.73C155.014 505.997 155.493 506.131 156.021 506.131C156.311 506.131 156.589 506.091 156.857 506.011C157.124 505.932 157.366 505.814 157.585 505.658C157.807 505.499 157.994 505.304 158.148 505.074C158.304 504.841 158.413 504.574 158.476 504.273H159.533C159.453 504.719 159.308 505.118 159.098 505.47C158.888 505.822 158.626 506.122 158.314 506.369C158.001 506.614 157.651 506.8 157.261 506.928C156.875 507.055 156.462 507.119 156.021 507.119C155.277 507.119 154.615 506.938 154.036 506.574C153.456 506.21 153 505.693 152.668 505.023C152.335 504.352 152.169 503.557 152.169 502.636C152.169 501.716 152.335 500.92 152.668 500.25C153 499.58 153.456 499.062 154.036 498.699C154.615 498.335 155.277 498.153 156.021 498.153C156.462 498.153 156.875 498.217 157.261 498.345C157.651 498.473 158.001 498.661 158.314 498.908C158.626 499.152 158.888 499.45 159.098 499.803C159.308 500.152 159.453 500.551 159.533 501ZM163.763 507.136C163.172 507.136 162.654 506.996 162.208 506.714C161.765 506.433 161.418 506.04 161.168 505.534C160.921 505.028 160.797 504.437 160.797 503.761C160.797 503.08 160.921 502.484 161.168 501.976C161.418 501.467 161.765 501.072 162.208 500.791C162.654 500.51 163.172 500.369 163.763 500.369C164.354 500.369 164.871 500.51 165.314 500.791C165.76 501.072 166.107 501.467 166.354 501.976C166.604 502.484 166.729 503.08 166.729 503.761C166.729 504.437 166.604 505.028 166.354 505.534C166.107 506.04 165.76 506.433 165.314 506.714C164.871 506.996 164.354 507.136 163.763 507.136ZM163.763 506.233C164.212 506.233 164.581 506.118 164.871 505.888C165.161 505.658 165.375 505.355 165.515 504.98C165.654 504.605 165.723 504.199 165.723 503.761C165.723 503.324 165.654 502.916 165.515 502.538C165.375 502.161 165.161 501.855 164.871 501.622C164.581 501.389 164.212 501.273 163.763 501.273C163.314 501.273 162.945 501.389 162.655 501.622C162.365 501.855 162.151 502.161 162.012 502.538C161.873 502.916 161.803 503.324 161.803 503.761C161.803 504.199 161.873 504.605 162.012 504.98C162.151 505.355 162.365 505.658 162.655 505.888C162.945 506.118 163.314 506.233 163.763 506.233ZM169.27 503.062V507H168.264V500.455H169.236V501.477H169.321C169.474 501.145 169.707 500.878 170.02 500.676C170.332 500.472 170.736 500.369 171.23 500.369C171.673 500.369 172.061 500.46 172.393 500.642C172.726 500.821 172.984 501.094 173.169 501.46C173.354 501.824 173.446 502.284 173.446 502.841V507H172.44V502.909C172.44 502.395 172.307 501.994 172.04 501.707C171.773 501.418 171.406 501.273 170.94 501.273C170.619 501.273 170.332 501.342 170.08 501.482C169.83 501.621 169.632 501.824 169.487 502.091C169.342 502.358 169.27 502.682 169.27 503.062ZM178.13 500.455V501.307H174.738V500.455H178.13ZM175.727 498.886H176.733V505.125C176.733 505.409 176.774 505.622 176.856 505.764C176.941 505.903 177.049 505.997 177.18 506.045C177.314 506.091 177.454 506.114 177.602 506.114C177.713 506.114 177.804 506.108 177.875 506.097C177.946 506.082 178.002 506.071 178.045 506.062L178.25 506.966C178.181 506.991 178.086 507.017 177.964 507.043C177.842 507.071 177.687 507.085 177.5 507.085C177.216 507.085 176.937 507.024 176.664 506.902C176.395 506.78 176.17 506.594 175.991 506.344C175.815 506.094 175.727 505.778 175.727 505.398V498.886ZM179.643 507V500.455H180.649V507H179.643ZM180.154 499.364C179.958 499.364 179.789 499.297 179.647 499.163C179.508 499.03 179.439 498.869 179.439 498.682C179.439 498.494 179.508 498.334 179.647 498.2C179.789 498.067 179.958 498 180.154 498C180.35 498 180.518 498.067 180.657 498.2C180.799 498.334 180.87 498.494 180.87 498.682C180.87 498.869 180.799 499.03 180.657 499.163C180.518 499.297 180.35 499.364 180.154 499.364ZM183.496 503.062V507H182.491V500.455H183.462V501.477H183.548C183.701 501.145 183.934 500.878 184.246 500.676C184.559 500.472 184.962 500.369 185.457 500.369C185.9 500.369 186.288 500.46 186.62 500.642C186.952 500.821 187.211 501.094 187.396 501.46C187.58 501.824 187.673 502.284 187.673 502.841V507H186.667V502.909C186.667 502.395 186.533 501.994 186.266 501.707C185.999 501.418 185.633 501.273 185.167 501.273C184.846 501.273 184.559 501.342 184.306 501.482C184.056 501.621 183.859 501.824 183.714 502.091C183.569 502.358 183.496 502.682 183.496 503.062ZM193.635 504.324V500.455H194.641V507H193.635V505.892H193.567C193.414 506.224 193.175 506.507 192.851 506.74C192.527 506.97 192.118 507.085 191.624 507.085C191.215 507.085 190.851 506.996 190.533 506.817C190.215 506.635 189.965 506.362 189.783 505.999C189.601 505.632 189.51 505.17 189.51 504.614V500.455H190.516V504.545C190.516 505.023 190.65 505.403 190.917 505.688C191.186 505.972 191.53 506.114 191.948 506.114C192.198 506.114 192.452 506.05 192.711 505.922C192.972 505.794 193.191 505.598 193.367 505.334C193.546 505.07 193.635 504.733 193.635 504.324ZM199.227 507.136C198.597 507.136 198.053 506.997 197.595 506.719C197.141 506.438 196.79 506.045 196.543 505.543C196.298 505.037 196.176 504.449 196.176 503.778C196.176 503.108 196.298 502.517 196.543 502.006C196.79 501.491 197.134 501.091 197.574 500.804C198.017 500.514 198.534 500.369 199.125 500.369C199.466 500.369 199.803 500.426 200.135 500.54C200.467 500.653 200.77 500.838 201.043 501.094C201.315 501.347 201.533 501.682 201.695 502.099C201.857 502.517 201.938 503.031 201.938 503.642V504.068H196.892V503.199H200.915C200.915 502.83 200.841 502.5 200.693 502.21C200.548 501.92 200.341 501.692 200.071 501.524C199.804 501.357 199.489 501.273 199.125 501.273C198.724 501.273 198.378 501.372 198.085 501.571C197.795 501.767 197.572 502.023 197.416 502.338C197.26 502.653 197.182 502.991 197.182 503.352V503.932C197.182 504.426 197.267 504.845 197.438 505.189C197.611 505.53 197.851 505.79 198.158 505.969C198.464 506.145 198.821 506.233 199.227 506.233C199.491 506.233 199.73 506.196 199.943 506.122C200.159 506.045 200.345 505.932 200.501 505.781C200.658 505.628 200.778 505.437 200.864 505.21L201.835 505.483C201.733 505.812 201.561 506.102 201.32 506.352C201.078 506.599 200.78 506.793 200.425 506.932C200.07 507.068 199.67 507.136 199.227 507.136Z" fill="white"/>
<rect x="75" y="367" width="210" height="41" rx="15" fill="#D86704" fill-opacity="0.8"/>
<rect x="75" y="308" width="210" height="41" rx="15" fill="#D86704" fill-opacity="0.8"/>
<rect x="75" y="426" width="210" height="41" rx="15" fill="#D86704" fill-opacity="0.8"/>
<path d="M146.469 392V383.273H149.418C150.1 383.273 150.659 383.389 151.097 383.622C151.534 383.852 151.858 384.169 152.068 384.572C152.279 384.976 152.384 385.435 152.384 385.949C152.384 386.463 152.279 386.919 152.068 387.317C151.858 387.714 151.536 388.027 151.101 388.254C150.666 388.479 150.111 388.591 149.435 388.591H147.048V387.636H149.401C149.867 387.636 150.242 387.568 150.526 387.432C150.813 387.295 151.02 387.102 151.148 386.852C151.279 386.599 151.344 386.298 151.344 385.949C151.344 385.599 151.279 385.294 151.148 385.033C151.017 384.771 150.808 384.57 150.521 384.428C150.235 384.283 149.855 384.21 149.384 384.21H147.526V392H146.469ZM150.577 388.08L152.725 392H151.497L149.384 388.08H150.577ZM156.597 392.136C156.006 392.136 155.488 391.996 155.042 391.714C154.599 391.433 154.252 391.04 154.002 390.534C153.755 390.028 153.631 389.437 153.631 388.761C153.631 388.08 153.755 387.484 154.002 386.976C154.252 386.467 154.599 386.072 155.042 385.791C155.488 385.51 156.006 385.369 156.597 385.369C157.188 385.369 157.705 385.51 158.148 385.791C158.594 386.072 158.941 386.467 159.188 386.976C159.438 387.484 159.563 388.08 159.563 388.761C159.563 389.437 159.438 390.028 159.188 390.534C158.941 391.04 158.594 391.433 158.148 391.714C157.705 391.996 157.188 392.136 156.597 392.136ZM156.597 391.233C157.046 391.233 157.415 391.118 157.705 390.888C157.995 390.658 158.209 390.355 158.349 389.98C158.488 389.605 158.557 389.199 158.557 388.761C158.557 388.324 158.488 387.916 158.349 387.538C158.209 387.161 157.995 386.855 157.705 386.622C157.415 386.389 157.046 386.273 156.597 386.273C156.148 386.273 155.779 386.389 155.489 386.622C155.199 386.855 154.985 387.161 154.846 387.538C154.706 387.916 154.637 388.324 154.637 388.761C154.637 389.199 154.706 389.605 154.846 389.98C154.985 390.355 155.199 390.658 155.489 390.888C155.779 391.118 156.148 391.233 156.597 391.233ZM162.104 383.273V392H161.098V383.273H162.104ZM164.952 383.273V392H163.946V383.273H164.952ZM177.225 383.273V392H176.203L171.447 385.148H171.362V392H170.305V383.273H171.328L176.1 390.142H176.186V383.273H177.225ZM183.329 389.324V385.455H184.334V392H183.329V390.892H183.26C183.107 391.224 182.868 391.507 182.545 391.74C182.221 391.97 181.812 392.085 181.317 392.085C180.908 392.085 180.545 391.996 180.226 391.817C179.908 391.635 179.658 391.362 179.476 390.999C179.295 390.632 179.204 390.17 179.204 389.614V385.455H180.209V389.545C180.209 390.023 180.343 390.403 180.61 390.688C180.88 390.972 181.224 391.114 181.641 391.114C181.891 391.114 182.145 391.05 182.404 390.922C182.665 390.794 182.884 390.598 183.06 390.334C183.239 390.07 183.329 389.733 183.329 389.324ZM186.176 392V385.455H187.148V386.477H187.233C187.369 386.128 187.59 385.857 187.894 385.663C188.198 385.467 188.563 385.369 188.989 385.369C189.421 385.369 189.78 385.467 190.067 385.663C190.357 385.857 190.583 386.128 190.744 386.477H190.813C190.98 386.139 191.232 385.871 191.567 385.672C191.902 385.47 192.304 385.369 192.773 385.369C193.358 385.369 193.837 385.553 194.209 385.919C194.581 386.283 194.767 386.849 194.767 387.619V392H193.762V387.619C193.762 387.136 193.629 386.791 193.365 386.584C193.101 386.376 192.79 386.273 192.432 386.273C191.972 386.273 191.615 386.412 191.362 386.69C191.11 386.966 190.983 387.315 190.983 387.739V392H189.96V387.517C189.96 387.145 189.84 386.845 189.598 386.618C189.357 386.388 189.046 386.273 188.665 386.273C188.404 386.273 188.159 386.342 187.932 386.482C187.708 386.621 187.526 386.814 187.387 387.061C187.25 387.305 187.182 387.588 187.182 387.909V392H186.176ZM196.742 392V383.273H197.748V386.494H197.833C197.907 386.381 198.009 386.236 198.14 386.06C198.274 385.881 198.464 385.722 198.711 385.582C198.961 385.44 199.299 385.369 199.725 385.369C200.276 385.369 200.762 385.507 201.183 385.783C201.603 386.058 201.931 386.449 202.167 386.955C202.403 387.46 202.521 388.057 202.521 388.744C202.521 389.438 202.403 390.038 202.167 390.547C201.931 391.053 201.605 391.445 201.187 391.723C200.769 391.999 200.288 392.136 199.742 392.136C199.322 392.136 198.985 392.067 198.732 391.928C198.48 391.786 198.285 391.625 198.149 391.446C198.012 391.264 197.907 391.114 197.833 390.994H197.714V392H196.742ZM197.731 388.727C197.731 389.222 197.803 389.658 197.948 390.036C198.093 390.411 198.305 390.705 198.583 390.918C198.862 391.128 199.203 391.233 199.606 391.233C200.026 391.233 200.377 391.122 200.659 390.901C200.943 390.676 201.156 390.375 201.298 389.997C201.443 389.616 201.515 389.193 201.515 388.727C201.515 388.267 201.444 387.852 201.302 387.483C201.163 387.111 200.951 386.817 200.667 386.601C200.386 386.382 200.032 386.273 199.606 386.273C199.197 386.273 198.853 386.376 198.575 386.584C198.296 386.788 198.086 387.075 197.944 387.445C197.802 387.811 197.731 388.239 197.731 388.727ZM206.803 392.136C206.173 392.136 205.629 391.997 205.171 391.719C204.717 391.438 204.366 391.045 204.119 390.543C203.874 390.037 203.752 389.449 203.752 388.778C203.752 388.108 203.874 387.517 204.119 387.006C204.366 386.491 204.71 386.091 205.15 385.804C205.593 385.514 206.11 385.369 206.701 385.369C207.042 385.369 207.379 385.426 207.711 385.54C208.044 385.653 208.346 385.838 208.619 386.094C208.892 386.347 209.109 386.682 209.271 387.099C209.433 387.517 209.514 388.031 209.514 388.642V389.068H204.468V388.199H208.491C208.491 387.83 208.417 387.5 208.269 387.21C208.124 386.92 207.917 386.692 207.647 386.524C207.38 386.357 207.065 386.273 206.701 386.273C206.301 386.273 205.954 386.372 205.661 386.571C205.372 386.767 205.149 387.023 204.992 387.338C204.836 387.653 204.758 387.991 204.758 388.352V388.932C204.758 389.426 204.843 389.845 205.014 390.189C205.187 390.53 205.427 390.79 205.734 390.969C206.041 391.145 206.397 391.233 206.803 391.233C207.068 391.233 207.306 391.196 207.519 391.122C207.735 391.045 207.921 390.932 208.078 390.781C208.234 390.628 208.355 390.437 208.44 390.21L209.411 390.483C209.309 390.812 209.137 391.102 208.896 391.352C208.654 391.599 208.356 391.793 208.001 391.932C207.646 392.068 207.247 392.136 206.803 392.136ZM211.044 392V385.455H212.015V386.443H212.083C212.203 386.119 212.419 385.857 212.731 385.655C213.044 385.453 213.396 385.352 213.788 385.352C213.862 385.352 213.954 385.354 214.065 385.357C214.176 385.359 214.259 385.364 214.316 385.369V386.392C214.282 386.384 214.204 386.371 214.082 386.354C213.963 386.334 213.836 386.324 213.703 386.324C213.384 386.324 213.1 386.391 212.85 386.524C212.603 386.655 212.407 386.837 212.262 387.07C212.12 387.3 212.049 387.562 212.049 387.858V392H211.044Z" fill="white"/>
<path d="M138.764 451V442.273H141.713C142.397 442.273 142.957 442.396 143.392 442.643C143.829 442.888 144.153 443.219 144.363 443.636C144.574 444.054 144.679 444.52 144.679 445.034C144.679 445.548 144.574 446.016 144.363 446.436C144.156 446.857 143.835 447.192 143.4 447.442C142.966 447.689 142.409 447.812 141.73 447.812H139.616V446.875H141.696C142.164 446.875 142.541 446.794 142.825 446.632C143.109 446.47 143.315 446.251 143.443 445.976C143.574 445.697 143.639 445.384 143.639 445.034C143.639 444.685 143.574 444.372 143.443 444.097C143.315 443.821 143.108 443.605 142.821 443.449C142.534 443.29 142.153 443.21 141.679 443.21H139.821V451H138.764ZM147.25 447.062V451H146.245V442.273H147.25V445.477H147.336C147.489 445.139 147.719 444.871 148.026 444.672C148.336 444.47 148.748 444.369 149.262 444.369C149.708 444.369 150.098 444.459 150.434 444.638C150.769 444.814 151.029 445.085 151.213 445.452C151.401 445.815 151.495 446.278 151.495 446.841V451H150.489V446.909C150.489 446.389 150.354 445.987 150.084 445.703C149.817 445.416 149.446 445.273 148.972 445.273C148.642 445.273 148.347 445.342 148.086 445.482C147.827 445.621 147.623 445.824 147.472 446.091C147.324 446.358 147.25 446.682 147.25 447.062ZM155.994 451.136C155.403 451.136 154.884 450.996 154.438 450.714C153.995 450.433 153.648 450.04 153.398 449.534C153.151 449.028 153.028 448.437 153.028 447.761C153.028 447.08 153.151 446.484 153.398 445.976C153.648 445.467 153.995 445.072 154.438 444.791C154.884 444.51 155.403 444.369 155.994 444.369C156.585 444.369 157.102 444.51 157.545 444.791C157.991 445.072 158.337 445.467 158.585 445.976C158.835 446.484 158.96 447.08 158.96 447.761C158.96 448.437 158.835 449.028 158.585 449.534C158.337 450.04 157.991 450.433 157.545 450.714C157.102 450.996 156.585 451.136 155.994 451.136ZM155.994 450.233C156.442 450.233 156.812 450.118 157.102 449.888C157.391 449.658 157.606 449.355 157.745 448.98C157.884 448.605 157.954 448.199 157.954 447.761C157.954 447.324 157.884 446.916 157.745 446.538C157.606 446.161 157.391 445.855 157.102 445.622C156.812 445.389 156.442 445.273 155.994 445.273C155.545 445.273 155.175 445.389 154.886 445.622C154.596 445.855 154.381 446.161 154.242 446.538C154.103 446.916 154.033 447.324 154.033 447.761C154.033 448.199 154.103 448.605 154.242 448.98C154.381 449.355 154.596 449.658 154.886 449.888C155.175 450.118 155.545 450.233 155.994 450.233ZM161.5 447.062V451H160.495V444.455H161.466V445.477H161.551C161.705 445.145 161.938 444.878 162.25 444.676C162.563 444.472 162.966 444.369 163.461 444.369C163.904 444.369 164.292 444.46 164.624 444.642C164.956 444.821 165.215 445.094 165.4 445.46C165.584 445.824 165.676 446.284 165.676 446.841V451H164.671V446.909C164.671 446.395 164.537 445.994 164.27 445.707C164.003 445.418 163.637 445.273 163.171 445.273C162.85 445.273 162.563 445.342 162.31 445.482C162.06 445.621 161.863 445.824 161.718 446.091C161.573 446.358 161.5 446.682 161.5 447.062ZM170.259 451.136C169.628 451.136 169.084 450.997 168.626 450.719C168.172 450.438 167.821 450.045 167.574 449.543C167.33 449.037 167.207 448.449 167.207 447.778C167.207 447.108 167.33 446.517 167.574 446.006C167.821 445.491 168.165 445.091 168.605 444.804C169.048 444.514 169.565 444.369 170.156 444.369C170.497 444.369 170.834 444.426 171.166 444.54C171.499 444.653 171.801 444.838 172.074 445.094C172.347 445.347 172.564 445.682 172.726 446.099C172.888 446.517 172.969 447.031 172.969 447.642V448.068H167.923V447.199H171.946C171.946 446.83 171.872 446.5 171.724 446.21C171.58 445.92 171.372 445.692 171.102 445.524C170.835 445.357 170.52 445.273 170.156 445.273C169.756 445.273 169.409 445.372 169.116 445.571C168.827 445.767 168.604 446.023 168.447 446.338C168.291 446.653 168.213 446.991 168.213 447.352V447.932C168.213 448.426 168.298 448.845 168.469 449.189C168.642 449.53 168.882 449.79 169.189 449.969C169.496 450.145 169.852 450.233 170.259 450.233C170.523 450.233 170.761 450.196 170.974 450.122C171.19 450.045 171.376 449.932 171.533 449.781C171.689 449.628 171.81 449.437 171.895 449.21L172.866 449.483C172.764 449.812 172.592 450.102 172.351 450.352C172.109 450.599 171.811 450.793 171.456 450.932C171.101 451.068 170.702 451.136 170.259 451.136ZM184.93 442.273V451H183.908L179.152 444.148H179.067V451H178.01V442.273H179.033L183.805 449.142H183.891V442.273H184.93ZM191.034 448.324V444.455H192.039V451H191.034V449.892H190.966C190.812 450.224 190.574 450.507 190.25 450.74C189.926 450.97 189.517 451.085 189.022 451.085C188.613 451.085 188.25 450.996 187.931 450.817C187.613 450.635 187.363 450.362 187.181 449.999C187 449.632 186.909 449.17 186.909 448.614V444.455H187.914V448.545C187.914 449.023 188.048 449.403 188.315 449.688C188.585 449.972 188.929 450.114 189.346 450.114C189.596 450.114 189.85 450.05 190.109 449.922C190.37 449.794 190.589 449.598 190.765 449.334C190.944 449.07 191.034 448.733 191.034 448.324ZM193.881 451V444.455H194.853V445.477H194.938C195.075 445.128 195.295 444.857 195.599 444.663C195.903 444.467 196.268 444.369 196.694 444.369C197.126 444.369 197.485 444.467 197.772 444.663C198.062 444.857 198.288 445.128 198.45 445.477H198.518C198.685 445.139 198.937 444.871 199.272 444.672C199.607 444.47 200.009 444.369 200.478 444.369C201.063 444.369 201.542 444.553 201.914 444.919C202.286 445.283 202.472 445.849 202.472 446.619V451H201.467V446.619C201.467 446.136 201.335 445.791 201.07 445.584C200.806 445.376 200.495 445.273 200.137 445.273C199.677 445.273 199.32 445.412 199.067 445.69C198.815 445.966 198.688 446.315 198.688 446.739V451H197.665V446.517C197.665 446.145 197.545 445.845 197.303 445.618C197.062 445.388 196.751 445.273 196.37 445.273C196.109 445.273 195.864 445.342 195.637 445.482C195.413 445.621 195.231 445.814 195.092 446.061C194.955 446.305 194.887 446.588 194.887 446.909V451H193.881ZM204.447 451V442.273H205.453V445.494H205.538C205.612 445.381 205.714 445.236 205.845 445.06C205.979 444.881 206.169 444.722 206.416 444.582C206.666 444.44 207.004 444.369 207.43 444.369C207.982 444.369 208.467 444.507 208.888 444.783C209.308 445.058 209.636 445.449 209.872 445.955C210.108 446.46 210.226 447.057 210.226 447.744C210.226 448.438 210.108 449.038 209.872 449.547C209.636 450.053 209.31 450.445 208.892 450.723C208.474 450.999 207.993 451.136 207.447 451.136C207.027 451.136 206.69 451.067 206.438 450.928C206.185 450.786 205.99 450.625 205.854 450.446C205.717 450.264 205.612 450.114 205.538 449.994H205.419V451H204.447ZM205.436 447.727C205.436 448.222 205.509 448.658 205.653 449.036C205.798 449.411 206.01 449.705 206.288 449.918C206.567 450.128 206.908 450.233 207.311 450.233C207.732 450.233 208.082 450.122 208.364 449.901C208.648 449.676 208.861 449.375 209.003 448.997C209.148 448.616 209.22 448.193 209.22 447.727C209.22 447.267 209.149 446.852 209.007 446.483C208.868 446.111 208.656 445.817 208.372 445.601C208.091 445.382 207.737 445.273 207.311 445.273C206.902 445.273 206.558 445.376 206.28 445.584C206.001 445.788 205.791 446.075 205.649 446.445C205.507 446.811 205.436 447.239 205.436 447.727ZM214.509 451.136C213.878 451.136 213.334 450.997 212.876 450.719C212.422 450.438 212.071 450.045 211.824 449.543C211.58 449.037 211.457 448.449 211.457 447.778C211.457 447.108 211.58 446.517 211.824 446.006C212.071 445.491 212.415 445.091 212.855 444.804C213.298 444.514 213.815 444.369 214.406 444.369C214.747 444.369 215.084 444.426 215.416 444.54C215.749 444.653 216.051 444.838 216.324 445.094C216.597 445.347 216.814 445.682 216.976 446.099C217.138 446.517 217.219 447.031 217.219 447.642V448.068H212.173V447.199H216.196C216.196 446.83 216.122 446.5 215.974 446.21C215.83 445.92 215.622 445.692 215.352 445.524C215.085 445.357 214.77 445.273 214.406 445.273C214.006 445.273 213.659 445.372 213.366 445.571C213.077 445.767 212.854 446.023 212.697 446.338C212.541 446.653 212.463 446.991 212.463 447.352V447.932C212.463 448.426 212.548 448.845 212.719 449.189C212.892 449.53 213.132 449.79 213.439 449.969C213.746 450.145 214.102 450.233 214.509 450.233C214.773 450.233 215.011 450.196 215.224 450.122C215.44 450.045 215.626 449.932 215.783 449.781C215.939 449.628 216.06 449.437 216.145 449.21L217.116 449.483C217.014 449.812 216.842 450.102 216.601 450.352C216.359 450.599 216.061 450.793 215.706 450.932C215.351 451.068 214.952 451.136 214.509 451.136ZM218.749 451V444.455H219.72V445.443H219.788C219.908 445.119 220.124 444.857 220.436 444.655C220.749 444.453 221.101 444.352 221.493 444.352C221.567 444.352 221.659 444.354 221.77 444.357C221.881 444.359 221.964 444.364 222.021 444.369V445.392C221.987 445.384 221.909 445.371 221.787 445.354C221.668 445.334 221.541 445.324 221.408 445.324C221.089 445.324 220.805 445.391 220.555 445.524C220.308 445.655 220.112 445.837 219.967 446.07C219.825 446.3 219.754 446.562 219.754 446.858V451H218.749Z" fill="white"/>
<path d="M171.372 324.273V333H170.349L165.593 326.148H165.508V333H164.451V324.273H165.474L170.247 331.142H170.332V324.273H171.372ZM175.276 333.153C174.862 333.153 174.485 333.075 174.147 332.919C173.809 332.76 173.54 332.531 173.342 332.233C173.143 331.932 173.043 331.568 173.043 331.142C173.043 330.767 173.117 330.463 173.265 330.23C173.413 329.994 173.61 329.81 173.857 329.676C174.104 329.543 174.377 329.443 174.675 329.378C174.977 329.31 175.279 329.256 175.583 329.216C175.981 329.165 176.303 329.126 176.55 329.101C176.8 329.072 176.982 329.026 177.096 328.96C177.212 328.895 177.271 328.781 177.271 328.619V328.585C177.271 328.165 177.156 327.838 176.925 327.605C176.698 327.372 176.353 327.256 175.89 327.256C175.41 327.256 175.033 327.361 174.761 327.571C174.488 327.781 174.296 328.006 174.185 328.244L173.231 327.903C173.401 327.506 173.629 327.196 173.913 326.974C174.2 326.75 174.512 326.594 174.85 326.506C175.191 326.415 175.526 326.369 175.856 326.369C176.066 326.369 176.308 326.395 176.58 326.446C176.856 326.494 177.121 326.595 177.377 326.749C177.636 326.902 177.85 327.134 178.021 327.443C178.191 327.753 178.276 328.168 178.276 328.688V333H177.271V332.114H177.219C177.151 332.256 177.038 332.408 176.879 332.57C176.719 332.732 176.508 332.869 176.244 332.983C175.979 333.097 175.657 333.153 175.276 333.153ZM175.43 332.25C175.827 332.25 176.163 332.172 176.435 332.016C176.711 331.859 176.918 331.658 177.058 331.411C177.2 331.163 177.271 330.903 177.271 330.631V329.71C177.228 329.761 177.134 329.808 176.989 329.851C176.847 329.891 176.683 329.926 176.495 329.957C176.31 329.986 176.13 330.011 175.954 330.034C175.781 330.054 175.64 330.071 175.532 330.085C175.271 330.119 175.026 330.175 174.799 330.251C174.575 330.325 174.393 330.437 174.254 330.588C174.117 330.736 174.049 330.937 174.049 331.193C174.049 331.543 174.178 331.807 174.437 331.986C174.698 332.162 175.029 332.25 175.43 332.25ZM180.112 333V326.455H181.083V327.477H181.169C181.305 327.128 181.525 326.857 181.829 326.663C182.133 326.467 182.498 326.369 182.924 326.369C183.356 326.369 183.716 326.467 184.002 326.663C184.292 326.857 184.518 327.128 184.68 327.477H184.748C184.916 327.139 185.167 326.871 185.502 326.672C185.838 326.47 186.24 326.369 186.708 326.369C187.294 326.369 187.772 326.553 188.145 326.919C188.517 327.283 188.703 327.849 188.703 328.619V333H187.697V328.619C187.697 328.136 187.565 327.791 187.301 327.584C187.037 327.376 186.725 327.273 186.368 327.273C185.907 327.273 185.551 327.412 185.298 327.69C185.045 327.966 184.919 328.315 184.919 328.739V333H183.896V328.517C183.896 328.145 183.775 327.845 183.534 327.618C183.292 327.388 182.981 327.273 182.6 327.273C182.339 327.273 182.095 327.342 181.868 327.482C181.643 327.621 181.461 327.814 181.322 328.061C181.186 328.305 181.118 328.588 181.118 328.909V333H180.112ZM193.286 333.136C192.655 333.136 192.111 332.997 191.654 332.719C191.199 332.438 190.848 332.045 190.601 331.543C190.357 331.037 190.235 330.449 190.235 329.778C190.235 329.108 190.357 328.517 190.601 328.006C190.848 327.491 191.192 327.091 191.632 326.804C192.076 326.514 192.593 326.369 193.184 326.369C193.525 326.369 193.861 326.426 194.194 326.54C194.526 326.653 194.828 326.838 195.101 327.094C195.374 327.347 195.591 327.682 195.753 328.099C195.915 328.517 195.996 329.031 195.996 329.642V330.068H190.951V329.199H194.973C194.973 328.83 194.9 328.5 194.752 328.21C194.607 327.92 194.4 327.692 194.13 327.524C193.863 327.357 193.547 327.273 193.184 327.273C192.783 327.273 192.436 327.372 192.144 327.571C191.854 327.767 191.631 328.023 191.475 328.338C191.319 328.653 191.24 328.991 191.24 329.352V329.932C191.24 330.426 191.326 330.845 191.496 331.189C191.669 331.53 191.909 331.79 192.216 331.969C192.523 332.145 192.88 332.233 193.286 332.233C193.55 332.233 193.789 332.196 194.002 332.122C194.218 332.045 194.404 331.932 194.56 331.781C194.716 331.628 194.837 331.437 194.922 331.21L195.894 331.483C195.792 331.812 195.62 332.102 195.378 332.352C195.137 332.599 194.838 332.793 194.483 332.932C194.128 333.068 193.729 333.136 193.286 333.136Z" fill="white"/>
<path d="M538.944 -185.959C577.428 -458.849 339.305 -130.292 66.4149 -168.776C-206.475 -207.259 -474.579 -482.484 -513.063 -209.594C-551.546 63.2956 -546.653 74.4986 -273.763 112.982C-0.872954 151.466 500.461 86.9304 538.944 -185.959Z" fill="#E04D01"/>
<circle cx="180" cy="74" r="35" fill="#D9D9D9"/>
<rect x="100" y="129" width="160" height="46" fill="#2A2550"/>
<path d="M139.781 164.384C138.117 164.384 136.623 164.117 135.301 163.584C133.978 163.029 132.837 162.251 131.877 161.248C130.938 160.224 130.213 158.997 129.701 157.568C129.189 156.139 128.933 154.549 128.933 152.8C128.933 151.136 129.189 149.632 129.701 148.288C130.234 146.944 130.991 145.792 131.973 144.832C132.954 143.872 134.127 143.125 135.493 142.592C136.858 142.037 138.394 141.749 140.101 141.728C140.762 141.728 141.434 141.792 142.117 141.92C142.821 142.048 143.493 142.229 144.133 142.464C144.773 142.699 145.349 142.976 145.861 143.296C146.223 143.531 146.533 143.776 146.789 144.032C147.045 144.267 147.183 144.512 147.205 144.768C147.226 144.896 147.205 145.056 147.141 145.248C147.077 145.44 146.991 145.621 146.885 145.792C146.714 146.048 146.522 146.24 146.309 146.368C146.117 146.475 145.925 146.528 145.733 146.528C145.647 146.528 145.498 146.475 145.285 146.368C145.071 146.261 144.805 146.101 144.485 145.888C144.122 145.675 143.695 145.472 143.205 145.28C142.735 145.088 142.223 144.939 141.669 144.832C141.114 144.725 140.538 144.672 139.941 144.672C138.298 144.672 136.869 145.003 135.653 145.664C134.437 146.325 133.498 147.275 132.837 148.512C132.197 149.749 131.866 151.211 131.845 152.896C131.866 154.645 132.207 156.16 132.869 157.44C133.53 158.72 134.458 159.712 135.653 160.416C136.869 161.12 138.287 161.472 139.909 161.472C140.442 161.472 140.986 161.429 141.541 161.344C142.095 161.259 142.639 161.141 143.173 160.992C143.727 160.821 144.239 160.619 144.709 160.384V154.208H139.109C138.831 154.208 138.586 154.176 138.373 154.112C138.181 154.048 138.031 153.92 137.925 153.728C137.839 153.536 137.797 153.248 137.797 152.864C137.797 152.48 137.85 152.192 137.957 152C138.063 151.808 138.213 151.68 138.405 151.616C138.597 151.552 138.831 151.52 139.109 151.52H146.053C146.479 151.52 146.799 151.595 147.013 151.744C147.226 151.893 147.375 152.085 147.461 152.32C147.567 152.533 147.621 152.8 147.621 153.12V160.992C147.621 161.333 147.429 161.696 147.045 162.08C146.682 162.443 146.159 162.784 145.477 163.104C144.986 163.36 144.431 163.584 143.813 163.776C143.215 163.968 142.575 164.117 141.893 164.224C141.21 164.331 140.506 164.384 139.781 164.384ZM153.221 164.32C152.816 164.32 152.506 164.256 152.293 164.128C152.101 164.021 151.973 163.861 151.909 163.648C151.866 163.413 151.845 163.147 151.845 162.848V150.24C151.845 149.92 151.877 149.653 151.941 149.44C152.005 149.227 152.133 149.077 152.325 148.992C152.517 148.885 152.826 148.832 153.253 148.832C153.637 148.832 153.925 148.885 154.117 148.992C154.33 149.077 154.469 149.216 154.533 149.408C154.618 149.579 154.661 149.781 154.661 150.016L154.533 150.976C154.682 150.699 154.853 150.421 155.045 150.144C155.258 149.867 155.514 149.621 155.813 149.408C156.133 149.173 156.506 148.981 156.933 148.832C157.381 148.683 157.925 148.608 158.565 148.608C158.885 148.608 159.184 148.64 159.461 148.704C159.76 148.747 160.037 148.821 160.293 148.928C160.57 149.035 160.805 149.163 160.997 149.312C161.189 149.44 161.338 149.589 161.445 149.76C161.573 149.909 161.637 150.091 161.637 150.304C161.637 150.773 161.488 151.179 161.189 151.52C160.89 151.84 160.581 152 160.261 152C159.984 152 159.781 151.968 159.653 151.904C159.525 151.819 159.397 151.733 159.269 151.648C159.162 151.563 159.002 151.488 158.789 151.424C158.576 151.339 158.234 151.296 157.765 151.296C157.445 151.296 157.104 151.36 156.741 151.488C156.4 151.616 156.069 151.808 155.749 152.064C155.429 152.299 155.162 152.608 154.949 152.992C154.757 153.376 154.661 153.824 154.661 154.336V162.912C154.661 163.211 154.629 163.467 154.565 163.68C154.501 163.893 154.362 164.053 154.149 164.16C153.957 164.267 153.648 164.32 153.221 164.32ZM176.559 164.288C176.09 164.288 175.749 164.192 175.535 164C175.343 163.808 175.226 163.509 175.183 163.104L175.311 161.504C175.098 161.845 174.767 162.24 174.319 162.688C173.871 163.115 173.285 163.499 172.559 163.84C171.834 164.16 170.949 164.32 169.903 164.32C168.879 164.32 167.919 164.117 167.023 163.712C166.149 163.307 165.37 162.741 164.687 162.016C164.026 161.291 163.503 160.459 163.119 159.52C162.757 158.581 162.575 157.579 162.575 156.512C162.575 155.467 162.757 154.485 163.119 153.568C163.503 152.629 164.037 151.808 164.719 151.104C165.402 150.4 166.181 149.845 167.055 149.44C167.951 149.035 168.901 148.832 169.903 148.832C170.842 148.832 171.642 148.96 172.303 149.216C172.965 149.451 173.53 149.771 173.999 150.176C174.49 150.56 174.917 150.997 175.279 151.488L175.215 150.144C175.194 149.675 175.29 149.344 175.503 149.152C175.738 148.939 176.101 148.832 176.591 148.832C176.997 148.832 177.285 148.896 177.455 149.024C177.647 149.152 177.775 149.333 177.839 149.568C177.903 149.803 177.935 150.091 177.935 150.432V162.784C177.935 163.083 177.903 163.349 177.839 163.584C177.775 163.819 177.647 163.989 177.455 164.096C177.263 164.224 176.965 164.288 176.559 164.288ZM170.383 161.632C171.237 161.632 172.015 161.408 172.719 160.96C173.445 160.512 174.01 159.915 174.415 159.168C174.842 158.4 175.055 157.525 175.055 156.544C175.055 155.541 174.831 154.667 174.383 153.92C173.957 153.152 173.381 152.555 172.655 152.128C171.951 151.68 171.173 151.456 170.319 151.456C169.317 151.456 168.442 151.691 167.695 152.16C166.97 152.608 166.394 153.216 165.967 153.984C165.541 154.752 165.327 155.627 165.327 156.608C165.327 157.568 165.541 158.432 165.967 159.2C166.394 159.947 166.981 160.544 167.727 160.992C168.495 161.419 169.381 161.632 170.383 161.632ZM189.654 164.32C188.609 164.32 187.66 164.128 186.806 163.744C185.953 163.36 185.228 162.816 184.63 162.112C184.033 161.408 183.564 160.587 183.222 159.648C182.902 158.709 182.753 157.675 182.774 156.544C182.774 155.435 182.934 154.411 183.254 153.472C183.574 152.512 184.033 151.691 184.63 151.008C185.249 150.304 185.974 149.76 186.806 149.376C187.66 148.992 188.609 148.8 189.654 148.8C190.636 148.8 191.553 148.992 192.406 149.376C193.281 149.76 194.038 150.304 194.678 151.008C195.34 151.691 195.852 152.501 196.214 153.44C196.598 154.379 196.79 155.403 196.79 156.512C196.79 157.643 196.598 158.688 196.214 159.648C195.852 160.587 195.34 161.408 194.678 162.112C194.038 162.816 193.281 163.36 192.406 163.744C191.553 164.128 190.636 164.32 189.654 164.32ZM189.238 161.6C190.134 161.6 190.945 161.387 191.67 160.96C192.396 160.533 192.961 159.947 193.366 159.2C193.793 158.432 194.006 157.557 194.006 156.576C194.006 155.573 193.793 154.699 193.366 153.952C192.961 153.184 192.396 152.587 191.67 152.16C190.966 151.733 190.156 151.52 189.238 151.52C188.342 151.52 187.532 151.733 186.806 152.16C186.102 152.587 185.537 153.184 185.11 153.952C184.705 154.699 184.502 155.573 184.502 156.576C184.502 157.557 184.705 158.432 185.11 159.2C185.537 159.947 186.102 160.533 186.806 160.96C187.532 161.387 188.342 161.6 189.238 161.6ZM182.998 164.352C182.593 164.352 182.284 164.288 182.07 164.16C181.878 164.053 181.75 163.893 181.686 163.68C181.622 163.445 181.59 163.189 181.59 162.912V143.168C181.59 142.848 181.622 142.581 181.686 142.368C181.75 142.155 181.878 141.995 182.07 141.888C182.284 141.76 182.593 141.696 182.998 141.696C183.404 141.696 183.702 141.76 183.894 141.888C184.086 142.016 184.214 142.187 184.278 142.4C184.342 142.613 184.374 142.869 184.374 143.168V163.2C184.332 163.605 184.204 163.893 183.99 164.064C183.798 164.256 183.468 164.352 182.998 164.352ZM201.943 164.32C201.538 164.32 201.229 164.256 201.015 164.128C200.823 164.021 200.695 163.861 200.631 163.648C200.567 163.435 200.535 163.179 200.535 162.88V150.24C200.535 149.941 200.567 149.685 200.631 149.472C200.695 149.259 200.823 149.099 201.015 148.992C201.229 148.885 201.549 148.832 201.975 148.832C202.381 148.832 202.679 148.896 202.871 149.024C203.063 149.131 203.191 149.291 203.255 149.504C203.319 149.717 203.351 149.984 203.351 150.304V162.912C203.351 163.211 203.319 163.467 203.255 163.68C203.191 163.893 203.053 164.053 202.839 164.16C202.647 164.267 202.349 164.32 201.943 164.32ZM201.943 144.992C201.474 144.992 201.122 144.928 200.887 144.8C200.653 144.651 200.493 144.448 200.407 144.192C200.343 143.936 200.311 143.637 200.311 143.296C200.311 142.955 200.354 142.667 200.439 142.432C200.525 142.176 200.685 141.995 200.919 141.888C201.154 141.76 201.506 141.696 201.975 141.696C202.423 141.696 202.765 141.76 202.999 141.888C203.234 142.016 203.383 142.208 203.447 142.464C203.533 142.72 203.575 143.019 203.575 143.36C203.575 143.701 203.533 144 203.447 144.256C203.383 144.491 203.234 144.672 202.999 144.8C202.765 144.928 202.413 144.992 201.943 144.992ZM210.075 164.352C209.691 164.352 209.392 164.288 209.179 164.16C208.987 164.032 208.859 163.861 208.795 163.648C208.731 163.413 208.699 163.147 208.699 162.848V146.784C208.699 145.931 208.795 145.184 208.987 144.544C209.179 143.904 209.499 143.371 209.947 142.944C210.395 142.517 210.96 142.197 211.643 141.984C212.347 141.749 213.211 141.632 214.235 141.632C214.512 141.632 214.757 141.664 214.971 141.728C215.205 141.771 215.376 141.899 215.483 142.112C215.611 142.304 215.675 142.603 215.675 143.008C215.675 143.413 215.611 143.723 215.483 143.936C215.355 144.128 215.184 144.256 214.971 144.32C214.757 144.384 214.501 144.416 214.203 144.416C213.712 144.416 213.285 144.437 212.923 144.48C212.581 144.523 212.315 144.619 212.123 144.768C211.931 144.917 211.781 145.152 211.675 145.472C211.589 145.771 211.547 146.187 211.547 146.72V162.944C211.547 163.221 211.504 163.467 211.419 163.68C211.355 163.893 211.216 164.053 211.003 164.16C210.811 164.288 210.501 164.352 210.075 164.352ZM207.067 149.184L210.139 149.216L214.587 149.152C214.885 149.152 215.141 149.184 215.355 149.248C215.568 149.291 215.728 149.419 215.835 149.632C215.963 149.824 216.027 150.123 216.027 150.528C216.027 150.933 215.973 151.243 215.867 151.456C215.76 151.648 215.6 151.776 215.387 151.84C215.173 151.904 214.917 151.936 214.619 151.936L210.235 151.872L207.003 151.904C206.555 151.904 206.245 151.797 206.075 151.584C205.925 151.371 205.851 151.019 205.851 150.528C205.851 150.059 205.947 149.717 206.139 149.504C206.331 149.291 206.64 149.184 207.067 149.184ZM221.456 170.528C220.944 170.315 220.645 170.069 220.56 169.792C220.474 169.515 220.549 169.131 220.784 168.64L229.264 149.6C229.498 149.109 229.744 148.811 230 148.704C230.277 148.576 230.661 148.619 231.152 148.832C231.664 149.067 231.952 149.323 232.016 149.6C232.101 149.877 232.037 150.251 231.824 150.72L223.28 169.856C223.066 170.347 222.832 170.635 222.576 170.72C222.32 170.805 221.946 170.741 221.456 170.528ZM224.624 162.272L217.296 150.976C217.018 150.549 216.912 150.197 216.976 149.92C217.04 149.621 217.285 149.333 217.712 149.056C218.181 148.757 218.554 148.651 218.832 148.736C219.13 148.8 219.429 149.045 219.728 149.472L225.936 159.232L224.624 162.272Z" fill="white"/>
</g>
<defs>
<clipPath id="clip0_189_18">
<rect width="360" height="640" fill="white"/>
</clipPath>
</defs>
</svg>
